<?xml version="1.0" standalone="no"?>
<!DOCTYPE svg PUBLIC "-//W3C//DTD SVG 20010904//EN"
 "http://www.w3.org/TR/2001/REC-SVG-20010904/DTD/svg10.dtd">
<svg version="1.0" xmlns="http://www.w3.org/2000/svg"
 width="190.000000pt" height="114.000000pt" viewBox="0 0 190.000000 114.000000"
 preserveAspectRatio="xMidYMid meet">

<g transform="translate(0.000000,114.000000) scale(0.100000,-0.100000)"
fill="#000000" stroke="none">
<path d="M390 887 c-13 -7 -37 -37 -53 -67 -25 -48 -28 -63 -24 -115 2 -33 14
-79 25 -101 31 -60 101 -120 163 -138 65 -20 93 -20 155 -1 43 12 47 12 29 -1
-32 -24 -96 -37 -156 -31 -105 9 -197 76 -243 176 -26 58 -27 161 -2 209 l17
33 -26 -17 c-52 -34 -68 -69 -62 -140 16 -202 214 -356 416 -323 65 10 92 33
121 102 99 228 -124 493 -288 344 -71 -65 -33 -212 65 -253 38 -17 106 -18
134 -4 10 6 19 8 19 5 0 -12 -70 -35 -107 -35 -49 0 -118 34 -148 74 -13 17
-29 53 -36 78 -12 42 -11 53 7 95 23 55 67 90 128 100 37 6 39 7 16 14 -41 12
-123 10 -150 -4z"/>
<path d="M914 697 c-26 -30 -49 -72 -67 -124 -29 -83 -36 -158 -14 -151 20 7
54 65 62 105 4 21 12 41 18 45 8 5 7 8 -4 8 -10 0 -19 -16 -28 -47 -6 -27 -19
-57 -27 -68 -15 -19 -15 -17 -9 25 10 68 24 106 46 126 28 25 72 101 67 115
-2 7 -22 -9 -44 -34z m16 -13 c0 -11 -42 -65 -47 -60 -6 6 29 66 39 66 4 0 8
-3 8 -6z"/>
<path d="M1310 693 c-17 -27 -36 -67 -42 -89 -12 -42 -47 -74 -82 -74 -25 0
-19 13 14 32 30 17 40 50 20 63 -6 4 -32 -16 -59 -44 -28 -29 -58 -51 -70 -51
-29 0 -26 12 9 32 18 10 30 25 30 37 0 37 -21 33 -64 -13 -43 -47 -74 -61 -61
-28 8 22 8 23 0 50 -9 27 -21 28 -35 2 -6 -11 -18 -20 -28 -21 -10 0 -12 -3
-5 -6 9 -3 8 -11 -4 -29 -8 -14 -14 -27 -11 -30 3 -2 17 14 32 36 32 48 41 51
32 9 -8 -43 10 -66 35 -43 17 15 19 15 34 0 21 -20 35 -20 63 0 21 15 25 15
41 0 23 -21 33 -20 65 5 l26 21 18 -22 17 -21 28 21 c15 12 27 30 27 41 0 12
7 19 20 19 17 0 19 -5 14 -25 -3 -14 -4 -32 0 -40 5 -14 9 -14 35 -1 26 14 30
14 35 1 8 -22 33 -18 72 11 32 25 34 25 34 6 0 -29 25 -34 52 -11 l23 20 -23
-11 c-32 -16 -37 -8 -18 29 9 16 16 35 16 41 0 17 -18 11 -25 -9 -7 -24 -83
-74 -101 -67 -23 9 -16 26 23 62 20 19 31 34 23 34 -7 0 -30 -17 -50 -39 -42
-44 -80 -68 -80 -51 0 6 7 25 16 41 16 33 12 51 -8 31 -7 -7 -25 -12 -40 -12
-22 0 -31 -7 -42 -35 -8 -19 -20 -35 -25 -35 -17 0 -13 56 4 70 18 15 75 113
75 129 0 26 -30 8 -60 -36z m9 -43 c-13 -22 -27 -40 -31 -40 -5 0 1 18 13 40
13 22 27 40 31 40 5 0 -1 -18 -13 -40z m-214 -70 c-10 -11 -20 -18 -23 -15 -3
3 3 14 13 25 10 11 20 18 23 15 3 -3 -3 -14 -13 -25z m100 0 c-10 -11 -20 -18
-23 -15 -3 3 3 14 13 25 10 11 20 18 23 15 3 -3 -3 -14 -13 -25z"/>
<path d="M1703 710 c-9 -25 -17 -30 -44 -30 -33 0 -35 -9 -2 -15 10 -2 19 -4
20 -4 1 -1 -9 -25 -22 -55 -23 -52 -23 -56 -7 -76 l17 -21 28 21 c15 12 27 17
27 11 0 -20 39 -11 58 14 11 14 22 25 26 25 11 0 -8 -36 -38 -70 -59 -66 -75
-146 -18 -85 17 19 19 23 5 11 -30 -25 -30 -5 -2 40 24 40 43 45 29 8 -6 -14
-6 -23 -1 -19 5 3 12 18 16 34 4 18 21 39 46 56 43 30 55 47 13 20 -30 -20
-40 -15 -25 14 21 38 -7 31 -42 -11 -41 -50 -55 -46 -32 7 21 52 12 55 -19 6
-47 -74 -97 -80 -69 -8 29 72 42 87 82 89 34 1 34 1 5 5 -27 4 -30 7 -26 33 6
39 -10 39 -25 0z"/>
<path d="M1410 650 c0 -5 5 -10 10 -10 6 0 10 5 10 10 0 6 -4 10 -10 10 -5 0
-10 -4 -10 -10z"/>
<path d="M1600 650 c0 -5 5 -10 10 -10 6 0 10 5 10 10 0 6 -4 10 -10 10 -5 0
-10 -4 -10 -10z"/>
<path d="M160 589 c0 -77 24 -140 76 -198 91 -101 231 -134 351 -81 79 34 86
49 17 36 -108 -19 -229 17 -317 95 -51 44 -81 88 -108 157 l-18 47 -1 -56z"/>
</g>
</svg>
